<mxfile host="65bd71144e">
    <diagram id="XcOQF1k1tdE1_Y1apGmL" name="Page-1">
        <mxGraphModel dx="885" dy="574" grid="1" gridSize="10" guides="1" tooltips="1" connect="1" arrows="1" fold="1" page="1" pageScale="1" pageWidth="850" pageHeight="1100" math="0" shadow="0">
            <root>
                <mxCell id="0"/>
                <mxCell id="1" parent="0"/>
                <mxCell id="2" value="Robot&lt;br&gt;- Students Result&amp;nbsp;&lt;br&gt;- Teacher Code" style="rounded=0;whiteSpace=wrap;html=1;" vertex="1" parent="1">
                    <mxGeometry x="320" y="560" width="180" height="80" as="geometry"/>
                </mxCell>
                <mxCell id="3" value="Students Results API&lt;br&gt;- /api/{course_id}/{students_id}/{question_id}/students_result" style="rounded=0;whiteSpace=wrap;html=1;" vertex="1" parent="1">
                    <mxGeometry x="30" y="380" width="350" height="70" as="geometry"/>
                </mxCell>
                <mxCell id="4" value="Students Results API&lt;br&gt;- /api/{course_id}/{teacher_id}/{question_id}/teacher_code" style="rounded=0;whiteSpace=wrap;html=1;" vertex="1" parent="1">
                    <mxGeometry x="480" y="380" width="350" height="70" as="geometry"/>
                </mxCell>
            </root>
        </mxGraphModel>
    </diagram>
</mxfile>